<?xml version="1.0" encoding="UTF-8"?>
<!DOCTYPE svg PUBLIC "-//W3C//DTD SVG 1.1//EN" "http://www.w3.org/Graphics/SVG/1.1/DTD/svg11.dtd">
<svg xmlns="http://www.w3.org/2000/svg" version="1.1" width="166px" height="166px" style="shape-rendering:geometricPrecision; text-rendering:geometricPrecision; image-rendering:optimizeQuality; fill-rule:evenodd; clip-rule:evenodd" xmlns:xlink="http://www.w3.org/1999/xlink">
<g><path style="opacity:0.059" fill="#d0c3e6" d="M 92.5,3.5 C 86.9738,3.17859 81.6405,3.51192 76.5,4.5C 74.8333,4.5 73.1667,4.5 71.5,4.5C 69.5,4.5 67.5,4.5 65.5,4.5C 70.9328,3.06873 76.5995,2.40206 82.5,2.5C 86.0175,2.5016 89.3509,2.83493 92.5,3.5 Z"/></g>
<g><path style="opacity:1" fill="#5b04d6" d="M 71.5,4.5 C 73.1667,4.5 74.8333,4.5 76.5,4.5C 87.348,4.02597 98.0147,5.19264 108.5,8C 116.417,10.9584 124.083,14.4584 131.5,18.5C 131.833,18.5 132.167,18.5 132.5,18.5C 132.5,19.8333 133.167,20.5 134.5,20.5C 136.141,21.147 137.474,22.147 138.5,23.5C 138.557,24.609 138.89,25.609 139.5,26.5C 137.89,31.6655 138.223,36.6655 140.5,41.5C 137.682,42.8815 136.182,41.8815 136,38.5C 135.755,40.6633 134.755,42.33 133,43.5C 133.367,46.6652 133.201,49.6652 132.5,52.5C 132.19,51.2617 131.69,51.2617 131,52.5C 128.96,47.9474 127.293,43.2808 126,38.5C 123.793,39.5375 121.293,39.5375 118.5,38.5C 115.948,34.6634 112.281,32.9967 107.5,33.5C 106.251,31.8639 104.584,30.6972 102.5,30C 93.1667,29.3333 83.8333,29.3333 74.5,30C 71.0586,32.7892 67.0586,34.1225 62.5,34C 62.8333,34.3333 63.1667,34.6667 63.5,35C 62.6195,35.7083 61.9528,36.5416 61.5,37.5C 60.1283,38.5116 58.795,39.5116 57.5,40.5C 53.228,42.7744 49.228,45.4411 45.5,48.5C 44.791,47.596 43.791,47.2627 42.5,47.5C 42.3491,50.7181 41.5158,51.0515 40,48.5C 38.8732,51.3771 38.2065,54.3771 38,57.5C 36.3161,59.7063 34.1495,61.2063 31.5,62C 32.3802,63.3561 32.7135,64.8561 32.5,66.5C 31.5,66.5 30.5,66.5 29.5,66.5C 29.7151,68.7743 30.3818,70.941 31.5,73C 29.8709,81.412 30.7042,89.5787 34,97.5C 34.6708,98.2524 35.5041,98.5858 36.5,98.5C 39.0296,101.688 41.6962,104.855 44.5,108C 47.2387,109.026 49.572,110.526 51.5,112.5C 52.4293,113.315 53.4293,114.148 54.5,115C 60.9347,116.963 67.6014,117.963 74.5,118C 75.6843,119.145 75.6843,120.312 74.5,121.5C 71.4908,124.177 68.8242,127.177 66.5,130.5C 64.9382,130.733 63.6049,131.4 62.5,132.5C 58.3719,133.874 54.0386,134.541 49.5,134.5C 43.015,134.252 36.6817,133.252 30.5,131.5C 29.5637,130.026 28.2303,129.026 26.5,128.5C 23.4534,125.455 20.7867,122.122 18.5,118.5C 16.0156,110.046 12.1822,102.379 7,95.5C 6.56007,90.3274 6.06007,85.1607 5.5,80C 7.13146,72.6444 8.46479,64.4777 9.5,55.5C 13.3161,48.8659 16.3161,41.8659 18.5,34.5C 22.2332,30.7728 25.5665,26.7728 28.5,22.5C 36.038,18.3923 43.7047,14.2256 51.5,10C 58.2075,7.83435 64.8742,6.00101 71.5,4.5 Z"/></g>
<g><path style="opacity:0.184" fill="#baa2df" d="M 76.5,4.5 C 81.6405,3.51192 86.9738,3.17859 92.5,3.5C 107.303,4.10493 120.303,9.10493 131.5,18.5C 124.083,14.4584 116.417,10.9584 108.5,8C 98.0147,5.19264 87.348,4.02597 76.5,4.5 Z"/></g>
<g><path style="opacity:0.671" fill="#ae91d7" d="M 65.5,4.5 C 67.5,4.5 69.5,4.5 71.5,4.5C 64.8742,6.00101 58.2075,7.83435 51.5,10C 43.7047,14.2256 36.038,18.3923 28.5,22.5C 39.0633,13.0526 51.3967,7.05261 65.5,4.5 Z"/></g>
<g><path style="opacity:0.31" fill="#d4c5e8" d="M 132.5,18.5 C 133.5,18.8333 134.167,19.5 134.5,20.5C 133.167,20.5 132.5,19.8333 132.5,18.5 Z"/></g>
<g><path style="opacity:0.302" fill="#d1c1e8" d="M 138.5,23.5 C 144.342,27.6687 148.675,33.0021 151.5,39.5C 147.733,34.9767 143.733,30.6434 139.5,26.5C 138.89,25.609 138.557,24.609 138.5,23.5 Z"/></g>
<g><path style="opacity:0.522" fill="#bba2dd" d="M 28.5,22.5 C 25.5665,26.7728 22.2332,30.7728 18.5,34.5C 17.1667,35.8333 15.8333,37.1667 14.5,38.5C 18.0841,32.2473 22.7508,26.9139 28.5,22.5 Z"/></g>
<g><path style="opacity:1" fill="#5d1bb7" d="M 107.5,33.5 C 105.883,32.962 104.216,32.6287 102.5,32.5C 98.7968,30.945 94.7968,30.2783 90.5,30.5C 87.3138,30.502 84.3138,30.8353 81.5,31.5C 78.8478,31.4095 76.5145,32.0762 74.5,33.5C 69.9097,34.0303 65.5763,35.3637 61.5,37.5C 61.9528,36.5416 62.6195,35.7083 63.5,35C 63.1667,34.6667 62.8333,34.3333 62.5,34C 67.0586,34.1225 71.0586,32.7892 74.5,30C 83.8333,29.3333 93.1667,29.3333 102.5,30C 104.584,30.6972 106.251,31.8639 107.5,33.5 Z"/></g>
<g><path style="opacity:1" fill="#b48ce0" d="M 81.5,31.5 C 84.3138,30.8353 87.3138,30.502 90.5,30.5C 94.7968,30.2783 98.7968,30.945 102.5,32.5C 95.5352,31.6591 88.5352,31.3257 81.5,31.5 Z"/></g>
<g><path style="opacity:1" fill="#6e35c2" d="M 107.5,33.5 C 112.281,32.9967 115.948,34.6634 118.5,38.5C 115.167,37.1667 111.833,35.8333 108.5,34.5C 107.833,34.5 107.5,34.1667 107.5,33.5 Z"/></g>
<g><path style="opacity:1" fill="#5b05d7" d="M 139.5,26.5 C 143.733,30.6434 147.733,34.9767 151.5,39.5C 152.674,40.5137 153.34,41.847 153.5,43.5C 153.427,45.0269 154.094,46.0269 155.5,46.5C 155.5,46.8333 155.5,47.1667 155.5,47.5C 156.36,52.2074 158.027,56.5407 160.5,60.5C 160.5,61.1667 160.5,61.8333 160.5,62.5C 161.353,76.4362 160.02,90.1028 156.5,103.5C 154.824,104.183 154.157,105.517 154.5,107.5C 154.672,108.492 154.338,109.158 153.5,109.5C 152.326,110.514 151.66,111.847 151.5,113.5C 148.167,117.167 144.833,120.833 141.5,124.5C 139.071,124.884 136.737,125.551 134.5,126.5C 134.649,127.552 134.483,128.552 134,129.5C 130.877,125.971 127.377,125.638 123.5,128.5C 124.668,130.217 126.335,130.884 128.5,130.5C 128.5,132.167 128.5,133.833 128.5,135.5C 126.08,135.292 123.747,135.626 121.5,136.5C 120.188,143.724 120.188,150.891 121.5,158C 120.756,159.039 119.756,159.539 118.5,159.5C 115.9,158.532 113.566,157.199 111.5,155.5C 109.881,153.881 108.215,152.215 106.5,150.5C 107.995,149.888 109.662,149.888 111.5,150.5C 112.5,150.167 113.5,149.833 114.5,149.5C 114.333,149.167 114.167,148.833 114,148.5C 110.606,147.544 107.106,147.211 103.5,147.5C 103.5,146.5 103.5,145.5 103.5,144.5C 105.827,144.753 107.827,144.086 109.5,142.5C 106.324,141.738 103.158,142.071 100,143.5C 98.2976,142.631 97.131,141.298 96.5,139.5C 97.228,137.845 97.3947,136.179 97,134.5C 95.3247,133.405 94.158,131.905 93.5,130C 92.2068,129.51 90.8734,129.343 89.5,129.5C 89.7634,124.722 91.4301,124.388 94.5,128.5C 95.7924,125.589 94.7924,123.756 91.5,123C 92.3366,121.989 92.67,120.822 92.5,119.5C 91.448,119.649 90.448,119.483 89.5,119C 91.5,118.667 93.5,118.333 95.5,118C 93.2852,117.83 91.2852,117.163 89.5,116C 96.044,113.902 102.544,112.402 109,111.5C 110.726,110.352 110.559,109.185 108.5,108C 110.393,105.443 112.727,104.943 115.5,106.5C 115.669,105.603 116.002,104.603 116.5,103.5C 120.08,104.75 121.08,103.583 119.5,100C 119.954,98.3783 120.954,97.2116 122.5,96.5C 123.167,98.5 123.833,100.5 124.5,102.5C 125.086,102.291 125.586,101.957 126,101.5C 127.153,98.2889 127.82,94.9555 128,91.5C 128.667,90.1667 129.333,90.1667 130,91.5C 130.789,89.4198 131.956,87.5865 133.5,86C 132.978,85.0497 132.311,84.2164 131.5,83.5C 133.727,81.3932 135.727,79.0599 137.5,76.5C 137.081,75.3279 136.415,74.3279 135.5,73.5C 134.664,66.4513 133.664,59.4513 132.5,52.5C 133.201,49.6652 133.367,46.6652 133,43.5C 134.755,42.33 135.755,40.6633 136,38.5C 136.182,41.8815 137.682,42.8815 140.5,41.5C 138.223,36.6655 137.89,31.6655 139.5,26.5 Z"/></g>
<g><path style="opacity:1" fill="#f7f7f8" d="M 74.5,33.5 C 81.376,34.062 88.2094,34.062 95,33.5C 103.294,35.3179 102.794,36.4846 93.5,37C 92.6667,37.8333 91.8333,38.6667 91,39.5C 89.261,39.4341 87.4277,38.7674 85.5,37.5C 83.5,38 81.5,38.5 79.5,39C 82.1667,39.3333 84.8333,39.6667 87.5,40C 87.9662,41.2988 87.9662,42.7988 87.5,44.5C 84.0901,44.4571 80.7568,44.9571 77.5,46C 73.6425,48.8092 69.3091,50.4759 64.5,51C 59.0305,54.7296 53.3638,57.8962 47.5,60.5C 45.8756,56.5555 46.2089,52.8889 48.5,49.5C 52.0599,47.9501 55.0599,44.9501 57.5,40.5C 61.8624,38.5438 66.5291,37.5438 71.5,37.5C 71.5,36.5 71.5,35.5 71.5,34.5C 72.791,34.7373 73.791,34.404 74.5,33.5 Z"/></g>
<g><path style="opacity:1" fill="#e7d1f8" d="M 74.5,33.5 C 73.791,34.404 72.791,34.7373 71.5,34.5C 71.5,35.5 71.5,36.5 71.5,37.5C 66.5291,37.5438 61.8624,38.5438 57.5,40.5C 58.795,39.5116 60.1283,38.5116 61.5,37.5C 65.5763,35.3637 69.9097,34.0303 74.5,33.5 Z"/></g>
<g><path style="opacity:0.173" fill="#dacded" d="M 14.5,38.5 C 14.573,40.0269 13.9063,41.0269 12.5,41.5C 12.427,39.9731 13.0937,38.9731 14.5,38.5 Z"/></g>
<g><path style="opacity:1" fill="#f6effa" d="M 81.5,31.5 C 88.5352,31.3257 95.5352,31.6591 102.5,32.5C 104.216,32.6287 105.883,32.962 107.5,33.5C 107.5,34.1667 107.833,34.5 108.5,34.5C 110.429,36.1482 112.429,37.8149 114.5,39.5C 115.386,40.325 115.719,41.325 115.5,42.5C 119.759,42.1019 121.592,44.1019 121,48.5C 122.011,47.6634 123.178,47.33 124.5,47.5C 124.562,50.753 125.396,53.753 127,56.5C 127.333,55.5 127.667,54.5 128,53.5C 128.808,55.5787 128.641,57.5787 127.5,59.5C 125.736,57.7224 123.736,56.3891 121.5,55.5C 120.972,54.2794 120.305,53.1127 119.5,52C 115.086,50.015 110.42,48.8484 105.5,48.5C 104.5,48.5 103.5,48.5 102.5,48.5C 96.013,47.346 89.3464,47.1794 82.5,48C 81.2625,48.2321 80.2625,48.7321 79.5,49.5C 79.1667,49.5 78.8333,49.5 78.5,49.5C 76.7085,49.366 75.0418,49.6993 73.5,50.5C 70.5465,51.4279 67.5465,52.2612 64.5,53C 63.944,53.3826 63.6107,53.8826 63.5,54.5C 59.3171,56.0875 55.6505,58.4208 52.5,61.5C 49.2358,63.0941 46.5691,65.4275 44.5,68.5C 40.1358,72.5472 37.4691,77.5472 36.5,83.5C 35.6862,85.631 35.1862,87.9644 35,90.5C 34.7216,89.5842 34.2216,88.9175 33.5,88.5C 30.4482,74.2455 34.1148,61.9122 44.5,51.5C 45.6049,50.3995 46.9382,49.7329 48.5,49.5C 46.2089,52.8889 45.8756,56.5555 47.5,60.5C 53.3638,57.8962 59.0305,54.7296 64.5,51C 69.3091,50.4759 73.6425,48.8092 77.5,46C 80.7568,44.9571 84.0901,44.4571 87.5,44.5C 87.9662,42.7988 87.9662,41.2988 87.5,40C 84.8333,39.6667 82.1667,39.3333 79.5,39C 81.5,38.5 83.5,38 85.5,37.5C 87.4277,38.7674 89.261,39.4341 91,39.5C 91.8333,38.6667 92.6667,37.8333 93.5,37C 102.794,36.4846 103.294,35.3179 95,33.5C 88.2094,34.062 81.376,34.062 74.5,33.5C 76.5145,32.0762 78.8478,31.4095 81.5,31.5 Z"/></g>
<g><path style="opacity:1" fill="#e5d1f5" d="M 57.5,40.5 C 55.0599,44.9501 52.0599,47.9501 48.5,49.5C 46.9382,49.7329 45.6049,50.3995 44.5,51.5C 44.5569,50.391 44.8902,49.391 45.5,48.5C 49.228,45.4411 53.228,42.7744 57.5,40.5 Z"/></g>
<g><path style="opacity:0.11" fill="#e8e1f4" d="M 153.5,43.5 C 154.906,43.9731 155.573,44.9731 155.5,46.5C 154.094,46.0269 153.427,45.0269 153.5,43.5 Z"/></g>
<g><path style="opacity:1" fill="#8759c6" d="M 102.5,48.5 C 94.7989,48.3089 87.1322,48.6423 79.5,49.5C 80.2625,48.7321 81.2625,48.2321 82.5,48C 89.3464,47.1794 96.013,47.346 102.5,48.5 Z"/></g>
<g><path style="opacity:1" fill="#9060cc" d="M 12.5,41.5 C 12.6621,43.5273 12.4955,45.5273 12,47.5C 11.2904,48.9733 10.1238,49.6399 8.5,49.5C 9.32567,46.5152 10.659,43.8485 12.5,41.5 Z"/></g>
<g><path style="opacity:1" fill="#dcc1f3" d="M 105.5,48.5 C 110.42,48.8484 115.086,50.015 119.5,52C 120.305,53.1127 120.972,54.2794 121.5,55.5C 121.167,55.5 120.833,55.5 120.5,55.5C 115.587,52.8752 110.587,50.5419 105.5,48.5 Z"/></g>
<g><path style="opacity:0.741" fill="#b69ddc" d="M 155.5,47.5 C 158.129,51.377 159.796,55.7103 160.5,60.5C 158.027,56.5407 156.36,52.2074 155.5,47.5 Z"/></g>
<g><path style="opacity:1" fill="#9868d5" d="M 73.5,50.5 C 70.6462,52.7288 67.3129,54.0621 63.5,54.5C 63.6107,53.8826 63.944,53.3826 64.5,53C 67.5465,52.2612 70.5465,51.4279 73.5,50.5 Z"/></g>
<g><path style="opacity:0.612" fill="#b9a0dc" d="M 8.5,49.5 C 8.31036,52.855 7.31036,55.855 5.5,58.5C 5.52751,55.0836 6.52751,52.0836 8.5,49.5 Z"/></g>
<g><path style="opacity:1" fill="#601fc5" d="M 78.5,49.5 C 76.7863,51.5146 74.7863,53.1813 72.5,54.5C 65.5369,56.4139 58.8702,58.7472 52.5,61.5C 55.6505,58.4208 59.3171,56.0875 63.5,54.5C 67.3129,54.0621 70.6462,52.7288 73.5,50.5C 75.0418,49.6993 76.7085,49.366 78.5,49.5 Z"/></g>
<g><path style="opacity:1" fill="#5b03d7" d="M 102.5,48.5 C 103.5,48.5 104.5,48.5 105.5,48.5C 110.587,50.5419 115.587,52.8752 120.5,55.5C 121.904,58.6619 124.071,61.3285 127,63.5C 127.182,65.3302 126.682,66.9969 125.5,68.5C 123.287,69.7729 120.954,70.7729 118.5,71.5C 117.127,71.3433 115.793,71.51 114.5,72C 107.483,75.3687 100.483,78.5354 93.5,81.5C 92.2794,80.9717 91.1127,80.305 90,79.5C 90.4736,82.0838 89.1402,83.7505 86,84.5C 83.3145,84.3162 83.1479,83.1495 85.5,81C 83.0638,80.5637 81.0638,81.397 79.5,83.5C 80.325,84.3857 81.325,84.719 82.5,84.5C 82.67,85.8221 82.3366,86.9887 81.5,88C 77.7978,88.6814 74.1311,88.5148 70.5,87.5C 68.1854,87.7991 68.1854,88.6325 70.5,90C 69.552,90.4828 68.552,90.6495 67.5,90.5C 67.5,91.8333 67.5,93.1667 67.5,94.5C 67.5,94.8333 67.5,95.1667 67.5,95.5C 66.9569,95.56 66.6236,95.8933 66.5,96.5C 70.7828,97.4922 75.1161,97.8256 79.5,97.5C 81.7224,97.5587 82.7224,98.7253 82.5,101C 82.4779,103.183 81.4779,104.683 79.5,105.5C 74.8144,107.214 69.9811,108.547 65,109.5C 58.3616,108.257 51.8616,106.591 45.5,104.5C 43.919,101.403 42.0857,98.4029 40,95.5C 39.6406,91.8138 38.8073,88.3138 37.5,85C 37.5808,82.4431 38.7474,80.6098 41,79.5C 41.4842,75.55 42.6509,71.8833 44.5,68.5C 47.7642,66.9059 50.4309,64.5725 52.5,61.5C 58.8702,58.7472 65.5369,56.4139 72.5,54.5C 74.7863,53.1813 76.7863,51.5146 78.5,49.5C 78.8333,49.5 79.1667,49.5 79.5,49.5C 87.1322,48.6423 94.7989,48.3089 102.5,48.5 Z"/></g>
<g><path style="opacity:1" fill="#6029bf" d="M 120.5,55.5 C 120.833,55.5 121.167,55.5 121.5,55.5C 123.795,58.2971 126.295,60.9638 129,63.5C 129.813,66.539 128.646,68.2056 125.5,68.5C 126.682,66.9969 127.182,65.3302 127,63.5C 124.071,61.3285 121.904,58.6619 120.5,55.5 Z"/></g>
<g><path style="opacity:0.365" fill="#c3b1dd" d="M 5.5,58.5 C 5.5,59.8333 5.5,61.1667 5.5,62.5C 4.83333,63.5 4.16667,64.5 3.5,65.5C 3.40953,62.8478 4.07619,60.5145 5.5,58.5 Z"/></g>
<g><path style="opacity:1" fill="#5b18c9" d="M 45.5,48.5 C 44.8902,49.391 44.5569,50.391 44.5,51.5C 34.1148,61.9122 30.4482,74.2455 33.5,88.5C 34.0991,91.9631 35.0991,95.2964 36.5,98.5C 35.5041,98.5858 34.6708,98.2524 34,97.5C 30.7042,89.5787 29.8709,81.412 31.5,73C 30.3818,70.941 29.7151,68.7743 29.5,66.5C 30.5,66.5 31.5,66.5 32.5,66.5C 32.7135,64.8561 32.3802,63.3561 31.5,62C 34.1495,61.2063 36.3161,59.7063 38,57.5C 38.2065,54.3771 38.8732,51.3771 40,48.5C 41.5158,51.0515 42.3491,50.7181 42.5,47.5C 43.791,47.2627 44.791,47.596 45.5,48.5 Z"/></g>
<g><path style="opacity:1" fill="#7540c1" d="M 52.5,61.5 C 50.4309,64.5725 47.7642,66.9059 44.5,68.5C 46.5691,65.4275 49.2358,63.0941 52.5,61.5 Z"/></g>
<g><path style="opacity:1" fill="#5f19c6" d="M 18.5,34.5 C 16.3161,41.8659 13.3161,48.8659 9.5,55.5C 8.46479,64.4777 7.13146,72.6444 5.5,80C 6.06007,85.1607 6.56007,90.3274 7,95.5C 12.1822,102.379 16.0156,110.046 18.5,118.5C 16.8122,116.146 14.8122,114.146 12.5,112.5C 12.5,112.167 12.5,111.833 12.5,111.5C 12.573,109.973 11.9063,108.973 10.5,108.5C 10.7709,106.62 10.1042,105.287 8.5,104.5C 7.59603,103.791 7.26269,102.791 7.5,101.5C 7.87988,99.302 7.21321,97.6354 5.5,96.5C 5.5,96.1667 5.5,95.8333 5.5,95.5C 5.5,93.8333 5.5,92.1667 5.5,90.5C 4.16667,81.1667 4.16667,71.8333 5.5,62.5C 5.5,61.1667 5.5,59.8333 5.5,58.5C 7.31036,55.855 8.31036,52.855 8.5,49.5C 10.1238,49.6399 11.2904,48.9733 12,47.5C 12.4955,45.5273 12.6621,43.5273 12.5,41.5C 13.9063,41.0269 14.573,40.0269 14.5,38.5C 15.8333,37.1667 17.1667,35.8333 18.5,34.5 Z"/></g>
<g><path style="opacity:1" fill="#6024ba" d="M 118.5,71.5 C 109.833,75.8333 101.167,80.1667 92.5,84.5C 92.1667,84.5 91.8333,84.5 91.5,84.5C 91.7822,83.2223 92.4489,82.2223 93.5,81.5C 100.483,78.5354 107.483,75.3687 114.5,72C 115.793,71.51 117.127,71.3433 118.5,71.5 Z"/></g>
<g><path style="opacity:1" fill="#ebd7f8" d="M 108.5,34.5 C 111.833,35.8333 115.167,37.1667 118.5,38.5C 123.993,43.1643 128.16,48.831 131,55.5C 131.717,59.1374 132.217,62.804 132.5,66.5C 132.684,69.2046 132.017,71.5379 130.5,73.5C 130.785,71.712 130.452,70.0453 129.5,68.5C 125.851,69.8036 122.851,71.8036 120.5,74.5C 116.916,75.8149 113.249,76.9816 109.5,78C 108.04,79.582 106.373,80.9153 104.5,82C 100.506,82.9445 96.506,83.7779 92.5,84.5C 101.167,80.1667 109.833,75.8333 118.5,71.5C 120.954,70.7729 123.287,69.7729 125.5,68.5C 128.646,68.2056 129.813,66.539 129,63.5C 126.295,60.9638 123.795,58.2971 121.5,55.5C 123.736,56.3891 125.736,57.7224 127.5,59.5C 128.641,57.5787 128.808,55.5787 128,53.5C 127.667,54.5 127.333,55.5 127,56.5C 125.396,53.753 124.562,50.753 124.5,47.5C 123.178,47.33 122.011,47.6634 121,48.5C 121.592,44.1019 119.759,42.1019 115.5,42.5C 115.719,41.325 115.386,40.325 114.5,39.5C 112.429,37.8149 110.429,36.1482 108.5,34.5 Z"/></g>
<g><path style="opacity:1" fill="#f7f7f8" d="M 113.5,99.5 C 110.319,101.592 107.319,103.925 104.5,106.5C 99.6851,108.63 94.6851,110.297 89.5,111.5C 84.7869,112.18 80.1202,112.18 75.5,111.5C 77.7514,108.705 80.4181,106.372 83.5,104.5C 84.0206,101.222 84.1873,97.8891 84,94.5C 85.5577,92.2324 87.7244,91.0657 90.5,91C 89.3774,89.9563 88.0441,89.2896 86.5,89C 88.087,88.1376 89.7536,87.4709 91.5,87C 92.2524,86.3292 92.5858,85.4959 92.5,84.5C 96.506,83.7779 100.506,82.9445 104.5,82C 106.373,80.9153 108.04,79.582 109.5,78C 113.249,76.9816 116.916,75.8149 120.5,74.5C 122.698,73.9329 125.031,73.9329 127.5,74.5C 127.6,77.667 126.933,80.667 125.5,83.5C 123.465,84.5965 122.132,86.2632 121.5,88.5C 120.572,86.6652 119.406,86.3318 118,87.5C 117.42,91.6429 115.92,95.6429 113.5,99.5 Z"/></g>
<g><path style="opacity:0.718" fill="#9572c5" d="M 5.5,62.5 C 4.16667,71.8333 4.16667,81.1667 5.5,90.5C 4.83333,89.5 4.16667,88.5 3.5,87.5C 2.20437,80.1796 2.20437,72.8463 3.5,65.5C 4.16667,64.5 4.83333,63.5 5.5,62.5 Z"/></g>
<g><path style="opacity:0.42" fill="#b69dde" d="M 160.5,62.5 C 161.29,63.6085 161.79,64.9419 162,66.5C 163.912,79.5364 162.078,91.8698 156.5,103.5C 160.02,90.1028 161.353,76.4362 160.5,62.5 Z"/></g>
<g><path style="opacity:1" fill="#f6edfc" d="M 130.5,73.5 C 130.167,76.1667 129.833,78.8333 129.5,81.5C 126.443,85.2576 123.61,89.2576 121,93.5C 118.561,95.6286 116.061,97.6286 113.5,99.5C 115.92,95.6429 117.42,91.6429 118,87.5C 119.406,86.3318 120.572,86.6652 121.5,88.5C 122.132,86.2632 123.465,84.5965 125.5,83.5C 126.933,80.667 127.6,77.667 127.5,74.5C 125.031,73.9329 122.698,73.9329 120.5,74.5C 122.851,71.8036 125.851,69.8036 129.5,68.5C 130.452,70.0453 130.785,71.712 130.5,73.5 Z"/></g>
<g><path style="opacity:1" fill="#5c17c9" d="M 93.5,81.5 C 92.4489,82.2223 91.7822,83.2223 91.5,84.5C 83.6909,88.4322 75.6909,91.7656 67.5,94.5C 67.5,93.1667 67.5,91.8333 67.5,90.5C 68.552,90.6495 69.552,90.4828 70.5,90C 68.1854,88.6325 68.1854,87.7991 70.5,87.5C 74.1311,88.5148 77.7978,88.6814 81.5,88C 82.3366,86.9887 82.67,85.8221 82.5,84.5C 81.325,84.719 80.325,84.3857 79.5,83.5C 81.0638,81.397 83.0638,80.5637 85.5,81C 83.1479,83.1495 83.3145,84.3162 86,84.5C 89.1402,83.7505 90.4736,82.0838 90,79.5C 91.1127,80.305 92.2794,80.9717 93.5,81.5 Z"/></g>
<g><path style="opacity:0.337" fill="#c3afdf" d="M 3.5,87.5 C 4.16667,88.5 4.83333,89.5 5.5,90.5C 5.5,92.1667 5.5,93.8333 5.5,95.5C 3.96046,93.1617 3.29379,90.4951 3.5,87.5 Z"/></g>
<g><path style="opacity:1" fill="#682ac0" d="M 44.5,68.5 C 42.6509,71.8833 41.4842,75.55 41,79.5C 38.7474,80.6098 37.5808,82.4431 37.5,85C 38.8073,88.3138 39.6406,91.8138 40,95.5C 42.0857,98.4029 43.919,101.403 45.5,104.5C 38.9277,99.0229 35.9277,92.0229 36.5,83.5C 37.4691,77.5472 40.1358,72.5472 44.5,68.5 Z"/></g>
<g><path style="opacity:1" fill="#bf99ea" d="M 67.5,95.5 C 71.5,96.1667 75.5,96.8333 79.5,97.5C 75.1161,97.8256 70.7828,97.4922 66.5,96.5C 66.6236,95.8933 66.9569,95.56 67.5,95.5 Z"/></g>
<g><path style="opacity:0.38" fill="#bfa9d8" d="M 5.5,96.5 C 7.21321,97.6354 7.87988,99.302 7.5,101.5C 6.06873,100.22 5.40206,98.5529 5.5,96.5 Z"/></g>
<g><path style="opacity:1" fill="#5b0dcc" d="M 132.5,52.5 C 133.664,59.4513 134.664,66.4513 135.5,73.5C 136.415,74.3279 137.081,75.3279 137.5,76.5C 135.727,79.0599 133.727,81.3932 131.5,83.5C 132.311,84.2164 132.978,85.0497 133.5,86C 131.956,87.5865 130.789,89.4198 130,91.5C 129.333,90.1667 128.667,90.1667 128,91.5C 127.82,94.9555 127.153,98.2889 126,101.5C 125.586,101.957 125.086,102.291 124.5,102.5C 123.833,100.5 123.167,98.5 122.5,96.5C 120.954,97.2116 119.954,98.3783 119.5,100C 121.08,103.583 120.08,104.75 116.5,103.5C 116.002,104.603 115.669,105.603 115.5,106.5C 112.727,104.943 110.393,105.443 108.5,108C 110.559,109.185 110.726,110.352 109,111.5C 102.544,112.402 96.044,113.902 89.5,116C 91.2852,117.163 93.2852,117.83 95.5,118C 93.5,118.333 91.5,118.667 89.5,119C 90.448,119.483 91.448,119.649 92.5,119.5C 92.67,120.822 92.3366,121.989 91.5,123C 94.7924,123.756 95.7924,125.589 94.5,128.5C 91.4301,124.388 89.7634,124.722 89.5,129.5C 88.8333,129.5 88.1667,129.5 87.5,129.5C 84.1703,125.164 79.837,122.498 74.5,121.5C 75.6843,120.312 75.6843,119.145 74.5,118C 67.6014,117.963 60.9347,116.963 54.5,115C 53.4293,114.148 52.4293,113.315 51.5,112.5C 55.6613,114.063 59.9946,114.729 64.5,114.5C 77.3806,116.621 89.8806,114.954 102,109.5C 103.31,108.87 104.144,107.87 104.5,106.5C 105.873,106.657 107.207,106.49 108.5,106C 110.775,103.917 113.442,102.417 116.5,101.5C 119.986,95.5234 124.319,91.0234 129.5,88C 128.395,85.8797 128.395,83.7131 129.5,81.5C 129.833,78.8333 130.167,76.1667 130.5,73.5C 132.017,71.5379 132.684,69.2046 132.5,66.5C 132.217,62.804 131.717,59.1374 131,55.5C 128.16,48.831 123.993,43.1643 118.5,38.5C 121.293,39.5375 123.793,39.5375 126,38.5C 127.293,43.2808 128.96,47.9474 131,52.5C 131.69,51.2617 132.19,51.2617 132.5,52.5 Z"/></g>
<g><path style="opacity:1" fill="#dbb8f4" d="M 36.5,83.5 C 35.9277,92.0229 38.9277,99.0229 45.5,104.5C 47.6572,106.412 49.9906,108.079 52.5,109.5C 51.2617,109.81 51.2617,110.31 52.5,111C 56.5431,112.491 60.5431,113.658 64.5,114.5C 59.9946,114.729 55.6613,114.063 51.5,112.5C 49.572,110.526 47.2387,109.026 44.5,108C 41.6962,104.855 39.0296,101.688 36.5,98.5C 35.0991,95.2964 34.0991,91.9631 33.5,88.5C 34.2216,88.9175 34.7216,89.5842 35,90.5C 35.1862,87.9644 35.6862,85.631 36.5,83.5 Z"/></g>
<g><path style="opacity:1" fill="#6d31c3" d="M 129.5,81.5 C 128.395,83.7131 128.395,85.8797 129.5,88C 124.319,91.0234 119.986,95.5234 116.5,101.5C 113.442,102.417 110.775,103.917 108.5,106C 107.207,106.49 105.873,106.657 104.5,106.5C 107.319,103.925 110.319,101.592 113.5,99.5C 116.061,97.6286 118.561,95.6286 121,93.5C 123.61,89.2576 126.443,85.2576 129.5,81.5 Z"/></g>
<g><path style="opacity:0.569" fill="#ab8ed8" d="M 156.5,103.5 C 156.34,105.153 155.674,106.486 154.5,107.5C 154.157,105.517 154.824,104.183 156.5,103.5 Z"/></g>
<g><path style="opacity:1" fill="#6528c1" d="M 45.5,104.5 C 51.8616,106.591 58.3616,108.257 65,109.5C 69.9811,108.547 74.8144,107.214 79.5,105.5C 77.0353,107.837 74.0353,109.337 70.5,110C 64.4492,110.746 58.4492,110.579 52.5,109.5C 49.9906,108.079 47.6572,106.412 45.5,104.5 Z"/></g>
<g><path style="opacity:0.149" fill="#d6c9e8" d="M 8.5,104.5 C 10.1042,105.287 10.7709,106.62 10.5,108.5C 9.32627,107.486 8.6596,106.153 8.5,104.5 Z"/></g>
<g><path style="opacity:1" fill="#7c47c4" d="M 104.5,106.5 C 104.144,107.87 103.31,108.87 102,109.5C 89.8806,114.954 77.3806,116.621 64.5,114.5C 70.8421,114.666 77.1754,114.5 83.5,114C 85.6115,113.155 87.6115,112.322 89.5,111.5C 94.6851,110.297 99.6851,108.63 104.5,106.5 Z"/></g>
<g><path style="opacity:0.114" fill="#e4d8f4" d="M 10.5,108.5 C 11.9063,108.973 12.573,109.973 12.5,111.5C 11.0937,111.027 10.427,110.027 10.5,108.5 Z"/></g>
<g><path style="opacity:1" fill="#f2e6fa" d="M 91.5,84.5 C 91.8333,84.5 92.1667,84.5 92.5,84.5C 92.5858,85.4959 92.2524,86.3292 91.5,87C 89.7536,87.4709 88.087,88.1376 86.5,89C 88.0441,89.2896 89.3774,89.9563 90.5,91C 87.7244,91.0657 85.5577,92.2324 84,94.5C 84.1873,97.8891 84.0206,101.222 83.5,104.5C 80.4181,106.372 77.7514,108.705 75.5,111.5C 80.1202,112.18 84.7869,112.18 89.5,111.5C 87.6115,112.322 85.6115,113.155 83.5,114C 77.1754,114.5 70.8421,114.666 64.5,114.5C 60.5431,113.658 56.5431,112.491 52.5,111C 51.2617,110.31 51.2617,109.81 52.5,109.5C 58.4492,110.579 64.4492,110.746 70.5,110C 74.0353,109.337 77.0353,107.837 79.5,105.5C 81.4779,104.683 82.4779,103.183 82.5,101C 82.7224,98.7253 81.7224,97.5587 79.5,97.5C 75.5,96.8333 71.5,96.1667 67.5,95.5C 67.5,95.1667 67.5,94.8333 67.5,94.5C 75.6909,91.7656 83.6909,88.4322 91.5,84.5 Z"/></g>
<g><path style="opacity:0.004" fill="#e6ddf3" d="M 153.5,109.5 C 153.771,111.38 153.104,112.713 151.5,113.5C 151.66,111.847 152.326,110.514 153.5,109.5 Z"/></g>
<g><path style="opacity:0.118" fill="#c4b0e1" d="M 12.5,112.5 C 14.8122,114.146 16.8122,116.146 18.5,118.5C 20.7867,122.122 23.4534,125.455 26.5,128.5C 20.0802,124.744 15.4135,119.411 12.5,112.5 Z"/></g>
<g><path style="opacity:0.047" fill="#c2b1e1" d="M 151.5,113.5 C 149.352,119.32 145.686,123.986 140.5,127.5C 140.557,126.391 140.89,125.391 141.5,124.5C 144.833,120.833 148.167,117.167 151.5,113.5 Z"/></g>
<g><path style="opacity:0.11" fill="#c3afe2" d="M 74.5,121.5 C 79.837,122.498 84.1703,125.164 87.5,129.5C 84.0476,127.271 80.381,125.271 76.5,123.5C 73.1306,125.884 69.7973,128.217 66.5,130.5C 68.8242,127.177 71.4908,124.177 74.5,121.5 Z"/></g>
<g><path style="opacity:0.031" fill="#e8e1f3" d="M 26.5,128.5 C 28.2303,129.026 29.5637,130.026 30.5,131.5C 28.368,131.446 27.0347,130.446 26.5,128.5 Z"/></g>
<g><path style="opacity:0.106" fill="#e0d7f0" d="M 87.5,129.5 C 88.1667,129.5 88.8333,129.5 89.5,129.5C 89.8333,130.167 90.1667,130.833 90.5,131.5C 88.9731,131.573 87.9731,130.906 87.5,129.5 Z"/></g>
<g><path style="opacity:1" fill="#6325cf" d="M 141.5,124.5 C 140.89,125.391 140.557,126.391 140.5,127.5C 139.833,128.833 138.833,129.833 137.5,130.5C 135.973,130.427 134.973,131.094 134.5,132.5C 134.167,133.5 133.5,134.167 132.5,134.5C 130.973,134.427 129.973,135.094 129.5,136.5C 127.326,136.75 125.659,137.75 124.5,139.5C 123.213,140.871 122.547,142.705 122.5,145C 122.506,147.033 122.839,148.866 123.5,150.5C 123.5,151.5 123.5,152.5 123.5,153.5C 123.5,156.167 123.5,158.833 123.5,161.5C 121.447,161.598 119.78,160.931 118.5,159.5C 119.756,159.539 120.756,159.039 121.5,158C 120.188,150.891 120.188,143.724 121.5,136.5C 123.747,135.626 126.08,135.292 128.5,135.5C 128.5,133.833 128.5,132.167 128.5,130.5C 126.335,130.884 124.668,130.217 123.5,128.5C 127.377,125.638 130.877,125.971 134,129.5C 134.483,128.552 134.649,127.552 134.5,126.5C 136.737,125.551 139.071,124.884 141.5,124.5 Z"/></g>
<g><path style="opacity:0.008" fill="#e3dbef" d="M 137.5,130.5 C 137.027,131.906 136.027,132.573 134.5,132.5C 134.973,131.094 135.973,130.427 137.5,130.5 Z"/></g>
<g><path style="opacity:0.165" fill="#ddd1ec" d="M 32.5,132.5 C 34.0269,132.427 35.0269,133.094 35.5,134.5C 33.9731,134.573 32.9731,133.906 32.5,132.5 Z"/></g>
<g><path style="opacity:0.043" fill="#e3daf1" d="M 66.5,130.5 C 65.2921,133.044 63.2921,134.378 60.5,134.5C 61.1667,133.833 61.8333,133.167 62.5,132.5C 63.6049,131.4 64.9382,130.733 66.5,130.5 Z"/></g>
<g><path style="opacity:0.682" fill="#bba0db" d="M 35.5,134.5 C 37.698,134.12 39.3646,134.787 40.5,136.5C 38.4471,136.598 36.7804,135.931 35.5,134.5 Z"/></g>
<g><path style="opacity:1" fill="#6325c8" d="M 30.5,131.5 C 36.6817,133.252 43.015,134.252 49.5,134.5C 54.0386,134.541 58.3719,133.874 62.5,132.5C 61.8333,133.167 61.1667,133.833 60.5,134.5C 58.847,134.66 57.5137,135.326 56.5,136.5C 51.5,136.5 46.5,136.5 41.5,136.5C 41.1667,136.5 40.8333,136.5 40.5,136.5C 39.3646,134.787 37.698,134.12 35.5,134.5C 35.0269,133.094 34.0269,132.427 32.5,132.5C 31.5084,132.672 30.8417,132.338 30.5,131.5 Z"/></g>
<g><path style="opacity:0.061" fill="#e5ddf2" d="M 60.5,134.5 C 59.713,136.104 58.3797,136.771 56.5,136.5C 57.5137,135.326 58.847,134.66 60.5,134.5 Z"/></g>
<g><path style="opacity:0.024" fill="#ebe6f4" d="M 132.5,134.5 C 132.027,135.906 131.027,136.573 129.5,136.5C 129.973,135.094 130.973,134.427 132.5,134.5 Z"/></g>
<g><path style="opacity:0.098" fill="#a183d0" d="M 90.5,131.5 C 92.4417,136.056 93.1083,141.056 92.5,146.5C 91.5318,144.393 91.1984,142.059 91.5,139.5C 91.5987,136.763 91.2653,134.096 90.5,131.5 Z"/></g>
<g><path style="opacity:0.034" fill="#d9ccea" d="M 41.5,136.5 C 46.5,136.5 51.5,136.5 56.5,136.5C 51.4835,139.087 46.4835,139.087 41.5,136.5 Z"/></g>
<g><path style="opacity:0.114" fill="#e0d8ef" d="M 129.5,136.5 C 128.341,138.25 126.674,139.25 124.5,139.5C 125.659,137.75 127.326,136.75 129.5,136.5 Z"/></g>
<g><path style="opacity:1" fill="#5b11cd" d="M 89.5,129.5 C 90.8734,129.343 92.2068,129.51 93.5,130C 94.158,131.905 95.3247,133.405 97,134.5C 97.3947,136.179 97.228,137.845 96.5,139.5C 97.131,141.298 98.2976,142.631 100,143.5C 103.158,142.071 106.324,141.738 109.5,142.5C 107.827,144.086 105.827,144.753 103.5,144.5C 103.5,145.5 103.5,146.5 103.5,147.5C 107.106,147.211 110.606,147.544 114,148.5C 114.167,148.833 114.333,149.167 114.5,149.5C 113.5,149.833 112.5,150.167 111.5,150.5C 109.662,149.888 107.995,149.888 106.5,150.5C 108.215,152.215 109.881,153.881 111.5,155.5C 110.5,155.5 109.5,155.5 108.5,155.5C 108.167,155.5 107.833,155.5 107.5,155.5C 107.027,154.094 106.027,153.427 104.5,153.5C 104.167,153.5 103.833,153.5 103.5,153.5C 103.027,152.094 102.027,151.427 100.5,151.5C 100.167,151.5 99.8333,151.5 99.5,151.5C 99.0269,150.094 98.0269,149.427 96.5,149.5C 96.0269,148.094 95.0269,147.427 93.5,147.5C 93.1667,147.5 92.8333,147.5 92.5,147.5C 92.5,147.167 92.5,146.833 92.5,146.5C 93.1083,141.056 92.4417,136.056 90.5,131.5C 90.1667,130.833 89.8333,130.167 89.5,129.5 Z"/></g>
<g><path style="opacity:0.01" fill="#f4f2f9" d="M 91.5,139.5 C 91.1984,142.059 91.5318,144.393 92.5,146.5C 92.5,146.833 92.5,147.167 92.5,147.5C 91.2521,146.666 90.5854,145.333 90.5,143.5C 90.5108,141.955 90.8442,140.622 91.5,139.5 Z"/></g>
<g><path style="opacity:0.094" fill="#ccc1df" d="M 124.5,139.5 C 123.577,143.064 123.244,146.731 123.5,150.5C 122.839,148.866 122.506,147.033 122.5,145C 122.547,142.705 123.213,140.871 124.5,139.5 Z"/></g>
<g><path style="opacity:0.184" fill="#bba8d9" d="M 93.5,147.5 C 95.0269,147.427 96.0269,148.094 96.5,149.5C 94.9731,149.573 93.9731,148.906 93.5,147.5 Z"/></g>
<g><path style="opacity:0.094" fill="#dfd7eb" d="M 96.5,149.5 C 98.0269,149.427 99.0269,150.094 99.5,151.5C 97.9731,151.573 96.9731,150.906 96.5,149.5 Z"/></g>
<g><path style="opacity:0.114" fill="#cabbe1" d="M 100.5,151.5 C 102.027,151.427 103.027,152.094 103.5,153.5C 101.973,153.573 100.973,152.906 100.5,151.5 Z"/></g>
<g><path style="opacity:0.098" fill="#cdbee5" d="M 104.5,153.5 C 106.027,153.427 107.027,154.094 107.5,155.5C 105.973,155.573 104.973,154.906 104.5,153.5 Z"/></g>
<g><path style="opacity:0.447" fill="#af97d6" d="M 123.5,153.5 C 124.903,156.909 125.57,160.575 125.5,164.5C 119.038,162.636 113.372,159.636 108.5,155.5C 109.5,155.5 110.5,155.5 111.5,155.5C 113.566,157.199 115.9,158.532 118.5,159.5C 119.78,160.931 121.447,161.598 123.5,161.5C 123.5,158.833 123.5,156.167 123.5,153.5 Z"/></g>
</svg>
