<?xml version="1.0" encoding="UTF-8"?>
<!DOCTYPE svg PUBLIC "-//W3C//DTD SVG 1.1//EN" "http://www.w3.org/Graphics/SVG/1.1/DTD/svg11.dtd">
<svg xmlns="http://www.w3.org/2000/svg" version="1.1" width="538px" height="80px" style="shape-rendering:geometricPrecision; text-rendering:geometricPrecision; image-rendering:optimizeQuality; fill-rule:evenodd; clip-rule:evenodd" xmlns:xlink="http://www.w3.org/1999/xlink">
<g><path style="opacity:1" fill="#5d0cd5" d="M 99.5,9.5 C 106.416,12.4201 111.75,17.0868 115.5,23.5C 115.898,26.3399 116.731,29.0066 118,31.5C 119.173,36.9611 118.173,41.9611 115,46.5C 114.667,46.1667 114.333,45.8333 114,45.5C 112.766,48.4198 111.766,51.4198 111,54.5C 109.667,55.8333 108.333,55.8333 107,54.5C 107.019,56.1075 107.185,57.7741 107.5,59.5C 106.833,59.8333 106.167,60.1667 105.5,60.5C 104.292,59.7659 102.959,59.4326 101.5,59.5C 101.5,60.5 101.5,61.5 101.5,62.5C 99.1667,62.5 96.8333,62.5 94.5,62.5C 94.5,63.5 94.5,64.5 94.5,65.5C 92.8333,65.5 91.1667,65.5 89.5,65.5C 89.5524,69.1981 89.8857,72.8648 90.5,76.5C 87.4824,76.2962 84.4824,75.9629 81.5,75.5C 76.6866,74.5068 72.0199,73.0068 67.5,71C 67.1084,68.6457 67.1084,66.1457 67.5,63.5C 65.4471,63.5979 63.7804,62.9313 62.5,61.5C 62.0629,59.9256 61.0629,58.7589 59.5,58C 59.9574,57.586 60.2907,57.086 60.5,56.5C 64.0133,55.0682 67.68,54.2348 71.5,54C 72.056,53.6174 72.3893,53.1174 72.5,52.5C 78.7189,50.1483 84.7189,47.315 90.5,44C 99.2514,36.5583 99.5847,28.8916 91.5,21C 71.2888,11.5223 51.6222,12.5223 32.5,24C 28.3768,26.9343 25.7102,30.7677 24.5,35.5C 23.0143,41.2068 24.681,46.0402 29.5,50C 33.203,52.354 37.203,53.854 41.5,54.5C 41.8333,54.5 42.1667,54.5 42.5,54.5C 46.5396,56.1167 50.8729,56.95 55.5,57C 54.552,57.4828 53.552,57.6495 52.5,57.5C 52.6198,60.2048 51.6198,60.8715 49.5,59.5C 48.6376,60.7658 47.9709,62.0992 47.5,63.5C 40.5226,64.4568 33.5226,64.6234 26.5,64C 25.5838,63.6258 24.7504,63.1258 24,62.5C 24.0773,61.2624 23.9106,60.2624 23.5,59.5C 19.9005,61.3534 17.2338,60.52 15.5,57C 14.2068,56.51 12.8734,56.3433 11.5,56.5C 9.83333,55.5 8.5,54.1667 7.5,52.5C 5.26871,47.6267 3.93538,42.46 3.5,37C 3.71869,32.7434 4.38536,28.5767 5.5,24.5C 5.73758,22.5956 6.73758,21.2623 8.5,20.5C 11.729,18.0584 14.729,15.3918 17.5,12.5C 23.947,7.56717 31.2803,4.56717 39.5,3.5C 49.1122,1.9592 58.7789,1.4592 68.5,2C 79.1288,3.37832 89.4621,5.87832 99.5,9.5 Z"/></g>
<g><path style="opacity:0.392" fill="#9d79d3" d="M 99.5,9.5 C 89.4621,5.87832 79.1288,3.37832 68.5,2C 58.7789,1.4592 49.1122,1.9592 39.5,3.5C 55.0586,-0.523354 70.7253,-0.356688 86.5,4C 91.2202,5.17624 95.5535,7.00957 99.5,9.5 Z"/></g>
<g><path style="opacity:1" fill="#5a01d4" d="M 128.5,10.5 C 142.167,10.5 155.833,10.5 169.5,10.5C 176.116,11.8193 182.782,13.6526 189.5,16C 199.305,23.1953 200.972,32.0286 194.5,42.5C 190.636,43.0985 187.303,44.7652 184.5,47.5C 188.465,53.7929 193.131,59.4595 198.5,64.5C 199.117,66.2292 200.117,67.7292 201.5,69C 191.506,69.4998 181.506,69.6665 171.5,69.5C 171.737,68.209 171.404,67.209 170.5,66.5C 165.393,61.0596 161.06,55.0596 157.5,48.5C 156.167,48.5 154.833,48.5 153.5,48.5C 153.5,55.5 153.5,62.5 153.5,69.5C 145.167,69.5 136.833,69.5 128.5,69.5C 128.5,49.8333 128.5,30.1667 128.5,10.5 Z M 167.5,34.5 C 163.881,35.2436 160.215,35.577 156.5,35.5C 156.5,32.5 156.5,29.5 156.5,26.5C 160.182,26.3347 163.848,26.5014 167.5,27C 171.381,29.5984 171.381,32.0984 167.5,34.5 Z"/></g>
<g><path style="opacity:1" fill="#5a01d4" d="M 269.5,24.5 C 257.167,24.5 244.833,24.5 232.5,24.5C 232.5,27.8333 232.5,31.1667 232.5,34.5C 242.833,34.5 253.167,34.5 263.5,34.5C 263.5,38.8333 263.5,43.1667 263.5,47.5C 253.167,47.5 242.833,47.5 232.5,47.5C 232.5,50.5 232.5,53.5 232.5,56.5C 244.989,57.4954 257.656,57.8287 270.5,57.5C 270.5,61.5 270.5,65.5 270.5,69.5C 248.833,69.5 227.167,69.5 205.5,69.5C 205.5,50.1667 205.5,30.8333 205.5,11.5C 226.833,11.5 248.167,11.5 269.5,11.5C 269.5,15.8333 269.5,20.1667 269.5,24.5 Z"/></g>
<g><path style="opacity:1" fill="#5b03d5" d="M 363.5,10.5 C 363.5,10.8333 363.5,11.1667 363.5,11.5C 363.5,30.8333 363.5,50.1667 363.5,69.5C 353.5,69.5 343.5,69.5 333.5,69.5C 333.831,62.1365 333.497,54.8032 332.5,47.5C 326.633,53.8962 322.3,61.2295 319.5,69.5C 319.5,69.8333 319.5,70.1667 319.5,70.5C 318.167,70.5 316.833,70.5 315.5,70.5C 313.333,69.802 311.5,68.4687 310,66.5C 307.35,62.0251 304.183,58.0251 300.5,54.5C 300.773,52.0418 299.773,50.3751 297.5,49.5C 296.503,56.1335 296.17,62.8002 296.5,69.5C 289.5,69.5 282.5,69.5 275.5,69.5C 275.5,50.5 275.5,31.5 275.5,12.5C 283.84,12.3336 292.173,12.5003 300.5,13C 301.103,15.0714 302.436,16.2381 304.5,16.5C 305.679,21.5328 308.345,25.5328 312.5,28.5C 314.875,30.2238 316.541,32.5571 317.5,35.5C 317.461,36.7562 317.961,37.7562 319,38.5C 320.989,34.3597 323.156,30.3597 325.5,26.5C 328.568,21.3756 331.902,16.3756 335.5,11.5C 344.81,10.5017 354.143,10.1684 363.5,10.5 Z"/></g>
<g><path style="opacity:0.999" fill="#5b03d5" d="M 418.5,12.5 C 423.306,17.9708 427.306,23.9708 430.5,30.5C 431.014,32.8679 432.18,34.8679 434,36.5C 434.5,28.1733 434.666,19.84 434.5,11.5C 441.5,11.5 448.5,11.5 455.5,11.5C 455.5,31.1667 455.5,50.8333 455.5,70.5C 447.833,70.5 440.167,70.5 432.5,70.5C 432.025,68.2163 431.025,66.2163 429.5,64.5C 430.335,63.9642 430.335,63.1309 429.5,62C 424.971,56.4639 420.805,50.6306 417,44.5C 416.5,52.8267 416.334,61.16 416.5,69.5C 409.833,69.5 403.167,69.5 396.5,69.5C 396.5,50.1667 396.5,30.8333 396.5,11.5C 403.89,11.2363 411.223,11.5696 418.5,12.5 Z"/></g>
<g><path style="opacity:1" fill="#5a01d4" d="M 508.5,13.5 C 512.274,14.5378 515.941,16.0378 519.5,18C 520.337,19.0113 520.67,20.1779 520.5,21.5C 521.5,21.5 522.5,21.5 523.5,21.5C 523.832,34.1842 523.499,46.8508 522.5,59.5C 521.07,61.386 519.403,63.0527 517.5,64.5C 512.849,66.7111 508.182,68.7111 503.5,70.5C 488.167,70.5 472.833,70.5 457.5,70.5C 457.5,66.1667 457.5,61.8333 457.5,57.5C 458.496,42.676 458.829,27.676 458.5,12.5C 475.195,12.2253 491.861,12.5586 508.5,13.5 Z M 496.5,31.5 C 496.5,38.5 496.5,45.5 496.5,52.5C 495.409,54.5342 493.743,55.8676 491.5,56.5C 488.833,56.5 486.167,56.5 483.5,56.5C 484.547,46.304 484.547,36.4707 483.5,27C 487.167,26.3333 490.833,26.3333 494.5,27C 496.107,28.049 496.773,29.549 496.5,31.5 Z"/></g>
<g><path style="opacity:0.008" fill="#8b8b8b" d="M 519.5,12.5 C 520.525,12.8966 520.692,13.5632 520,14.5C 519.536,13.9056 519.369,13.2389 519.5,12.5 Z"/></g>
<g><path style="opacity:0.394" fill="#48296d" d="M 455.5,10.5 C 455.5,10.8333 455.5,11.1667 455.5,11.5C 448.5,11.5 441.5,11.5 434.5,11.5C 434.666,19.84 434.5,28.1733 434,36.5C 432.18,34.8679 431.014,32.8679 430.5,30.5C 432.459,24.2504 433.126,17.5837 432.5,10.5C 440.167,10.5 447.833,10.5 455.5,10.5 Z"/></g>
<g><path style="opacity:0.341" fill="#604480" d="M 169.5,10.5 C 181.814,9.19994 191.814,13.1999 199.5,22.5C 200.833,27.5 200.833,32.5 199.5,37.5C 198.449,39.8444 196.782,41.5111 194.5,42.5C 200.972,32.0286 199.305,23.1953 189.5,16C 182.782,13.6526 176.116,11.8193 169.5,10.5 Z"/></g>
<g><path style="opacity:0.275" fill="#b293d9" d="M 17.5,12.5 C 14.729,15.3918 11.729,18.0584 8.5,20.5C 10.436,16.6891 13.436,14.0225 17.5,12.5 Z"/></g>
<g><path style="opacity:1" fill="#f4eef8" d="M 72.5,52.5 C 62.5889,54.2104 52.5889,54.8771 42.5,54.5C 42.1667,54.5 41.8333,54.5 41.5,54.5C 45.1667,53.8333 48.8333,53.1667 52.5,52.5C 55.6901,52.1099 58.3567,50.7765 60.5,48.5C 60.2907,47.914 59.9574,47.414 59.5,47C 56.1667,46.6667 52.8333,46.3333 49.5,46C 64.8447,41.1645 80.1781,36.3312 95.5,31.5C 91.5904,27.7101 86.9237,25.2101 81.5,24C 63.6118,20.445 46.9452,23.445 31.5,33C 29.6997,34.8119 28.0331,36.6452 26.5,38.5C 24.9519,38.1788 24.2852,37.1788 24.5,35.5C 25.7102,30.7677 28.3768,26.9343 32.5,24C 51.6222,12.5223 71.2888,11.5223 91.5,21C 99.5847,28.8916 99.2514,36.5583 90.5,44C 84.7189,47.315 78.7189,50.1483 72.5,52.5 Z"/></g>
<g><path style="opacity:0.231" fill="#70538c" d="M 304.5,16.5 C 308.156,19.8033 310.822,23.8033 312.5,28.5C 308.345,25.5328 305.679,21.5328 304.5,16.5 Z"/></g>
<g><path style="opacity:1" fill="#5d0cd5" d="M 52.5,52.5 C 42.5067,54.2162 34.0067,51.5495 27,44.5C 26.5045,42.5273 26.3379,40.5273 26.5,38.5C 28.0331,36.6452 29.6997,34.8119 31.5,33C 46.9452,23.445 63.6118,20.445 81.5,24C 86.9237,25.2101 91.5904,27.7101 95.5,31.5C 80.1781,36.3312 64.8447,41.1645 49.5,46C 52.8333,46.3333 56.1667,46.6667 59.5,47C 59.9574,47.414 60.2907,47.914 60.5,48.5C 58.3567,50.7765 55.6901,52.1099 52.5,52.5 Z"/></g>
<g><path style="opacity:0.094" fill="#47296c" d="M 270.5,10.5 C 272.446,15.3958 273.113,20.7291 272.5,26.5C 259.829,26.3334 247.162,26.5001 234.5,27C 236.032,29.33 235.698,31.33 233.5,33C 243.828,33.4998 254.161,33.6665 264.5,33.5C 264.5,38.5 264.5,43.5 264.5,48.5C 254.5,48.5 244.5,48.5 234.5,48.5C 233.539,50.2646 233.205,52.2646 233.5,54.5C 233.5,54.8333 233.5,55.1667 233.5,55.5C 233.5,55.8333 233.5,56.1667 233.5,56.5C 233.167,56.5 232.833,56.5 232.5,56.5C 232.5,53.5 232.5,50.5 232.5,47.5C 242.833,47.5 253.167,47.5 263.5,47.5C 263.5,43.1667 263.5,38.8333 263.5,34.5C 253.167,34.5 242.833,34.5 232.5,34.5C 232.5,31.1667 232.5,27.8333 232.5,24.5C 244.833,24.5 257.167,24.5 269.5,24.5C 270.486,20.03 270.819,15.3633 270.5,10.5 Z"/></g>
<g><path style="opacity:0.424" fill="#5c3f7c" d="M 491.5,56.5 C 493.743,55.8676 495.409,54.5342 496.5,52.5C 497.821,49.4018 498.488,45.9018 498.5,42C 498.488,38.0982 497.821,34.5982 496.5,31.5C 496.773,29.549 496.107,28.049 494.5,27C 490.833,26.3333 487.167,26.3333 483.5,27C 484.547,36.4707 484.547,46.304 483.5,56.5C 482.506,46.0131 482.172,35.3464 482.5,24.5C 486.514,24.3345 490.514,24.5012 494.5,25C 496.081,25.7065 497.581,26.5399 499,27.5C 499.667,36.5 499.667,45.5 499,54.5C 496.865,56.2785 494.365,56.9452 491.5,56.5 Z M 496.5,31.5 C 496.5,38.5 496.5,45.5 496.5,52.5C 495.409,54.5342 493.743,55.8676 491.5,56.5C 488.833,56.5 486.167,56.5 483.5,56.5C 484.547,46.304 484.547,36.4707 483.5,27C 487.167,26.3333 490.833,26.3333 494.5,27C 496.107,28.049 496.773,29.549 496.5,31.5 Z"/></g>
<g><path style="opacity:0.759" fill="#421188" d="M 457.5,11.5 C 473.503,11.3334 489.503,11.5001 505.5,12C 506.737,12.2321 507.737,12.7321 508.5,13.5C 491.861,12.5586 475.195,12.2253 458.5,12.5C 458.829,27.676 458.496,42.676 457.5,57.5C 457.5,42.1667 457.5,26.8333 457.5,11.5 Z"/></g>
<g><path style="opacity:0.114" fill="#86729a" d="M 204.5,10.5 C 204.667,30.1695 204.5,49.8362 204,69.5C 203.302,68.3094 202.469,67.3094 201.5,66.5C 201.837,47.6443 202.837,28.9776 204.5,10.5 Z"/></g>
<g><path style="opacity:0.683" fill="#441189" d="M 395.5,10.5 C 402.841,10.3337 410.174,10.5003 417.5,11C 418.056,11.3826 418.389,11.8826 418.5,12.5C 411.223,11.5696 403.89,11.2363 396.5,11.5C 396.5,30.8333 396.5,50.1667 396.5,69.5C 403.167,69.5 409.833,69.5 416.5,69.5C 416.5,69.8333 416.5,70.1667 416.5,70.5C 409.5,70.5 402.5,70.5 395.5,70.5C 395.5,50.5 395.5,30.5 395.5,10.5 Z"/></g>
<g><path style="opacity:0.22" fill="#644884" d="M 167.5,34.5 C 163.627,36.4302 159.294,37.0969 154.5,36.5C 154.5,32.5 154.5,28.5 154.5,24.5C 159.054,24.2546 163.554,24.5879 168,25.5C 170.909,27.7414 172.075,30.7414 171.5,34.5C 170.167,34.5 168.833,34.5 167.5,34.5 Z M 167.5,34.5 C 171.381,32.0984 171.381,29.5984 167.5,27C 163.848,26.5014 160.182,26.3347 156.5,26.5C 156.5,29.5 156.5,32.5 156.5,35.5C 160.215,35.577 163.881,35.2436 167.5,34.5 Z"/></g>
<g><path style="opacity:0.035" fill="#7c6695" d="M 325.5,26.5 C 323.156,30.3597 320.989,34.3597 319,38.5C 317.961,37.7562 317.461,36.7562 317.5,35.5C 320.167,32.5 322.833,29.5 325.5,26.5 Z"/></g>
<g><path style="opacity:0.608" fill="#9169c8" d="M 5.5,24.5 C 4.38536,28.5767 3.71869,32.7434 3.5,37C 3.93538,42.46 5.26871,47.6267 7.5,52.5C 1.44031,45.1319 -0.0596922,36.7986 3,27.5C 3.37675,26.0577 4.21009,25.0577 5.5,24.5 Z"/></g>
<g><path style="opacity:0.255" fill="#caaee2" d="M 496.5,31.5 C 497.821,34.5982 498.488,38.0982 498.5,42C 498.488,45.9018 497.821,49.4018 496.5,52.5C 496.5,45.5 496.5,38.5 496.5,31.5 Z"/></g>
<g><path style="opacity:0.926" fill="#512585" d="M 296.5,10.5 C 301.168,9.83863 303.835,11.8386 304.5,16.5C 302.436,16.2381 301.103,15.0714 300.5,13C 292.173,12.5003 283.84,12.3336 275.5,12.5C 275.5,31.5 275.5,50.5 275.5,69.5C 282.5,69.5 289.5,69.5 296.5,69.5C 296.17,62.8002 296.503,56.1335 297.5,49.5C 299.773,50.3751 300.773,52.0418 300.5,54.5C 298.856,59.5896 297.856,64.923 297.5,70.5C 289.833,70.5 282.167,70.5 274.5,70.5C 274.5,50.8333 274.5,31.1667 274.5,11.5C 282.019,11.825 289.352,11.4916 296.5,10.5 Z"/></g>
<g><path style="opacity:0.627" fill="#421581" d="M 204.5,10.5 C 226.5,10.5 248.5,10.5 270.5,10.5C 270.819,15.3633 270.486,20.03 269.5,24.5C 269.5,20.1667 269.5,15.8333 269.5,11.5C 248.167,11.5 226.833,11.5 205.5,11.5C 205.5,30.8333 205.5,50.1667 205.5,69.5C 227.167,69.5 248.833,69.5 270.5,69.5C 270.5,65.5 270.5,61.5 270.5,57.5C 257.656,57.8287 244.989,57.4954 232.5,56.5C 232.833,56.5 233.167,56.5 233.5,56.5C 246.167,56.5 258.833,56.5 271.5,56.5C 271.5,61.1667 271.5,65.8333 271.5,70.5C 237.833,70.5 204.167,70.5 170.5,70.5C 170.5,69.1667 170.5,67.8333 170.5,66.5C 171.404,67.209 171.737,68.209 171.5,69.5C 181.506,69.6665 191.506,69.4998 201.5,69C 200.117,67.7292 199.117,66.2292 198.5,64.5C 199.167,64.5 199.833,64.5 200.5,64.5C 201.338,64.8417 201.672,65.5084 201.5,66.5C 202.469,67.3094 203.302,68.3094 204,69.5C 204.5,49.8362 204.667,30.1695 204.5,10.5 Z"/></g>
<g><path style="opacity:1" fill="#c59fe9" d="M 24.5,35.5 C 24.2852,37.1788 24.9519,38.1788 26.5,38.5C 26.3379,40.5273 26.5045,42.5273 27,44.5C 34.0067,51.5495 42.5067,54.2162 52.5,52.5C 48.8333,53.1667 45.1667,53.8333 41.5,54.5C 37.203,53.854 33.203,52.354 29.5,50C 24.681,46.0402 23.0143,41.2068 24.5,35.5 Z"/></g>
<g><path style="opacity:0.123" fill="#bbaeca" d="M 455.5,10.5 C 456.167,10.5 456.833,10.5 457.5,10.5C 457.5,10.8333 457.5,11.1667 457.5,11.5C 457.5,26.8333 457.5,42.1667 457.5,57.5C 457.5,61.8333 457.5,66.1667 457.5,70.5C 472.833,70.5 488.167,70.5 503.5,70.5C 503.833,70.5 504.167,70.5 504.5,70.5C 503.737,71.2679 502.737,71.7679 501.5,72C 494.167,72.1667 486.833,72.3333 479.5,72.5C 467.776,71.9671 456.11,71.9671 444.5,72.5C 441.167,72.3333 437.833,72.1667 434.5,72C 433.584,71.7216 432.918,71.2216 432.5,70.5C 440.167,70.5 447.833,70.5 455.5,70.5C 455.5,50.8333 455.5,31.1667 455.5,11.5C 455.5,11.1667 455.5,10.8333 455.5,10.5 Z"/></g>
<g><path style="opacity:0.745" fill="#5d21aa" d="M 363.5,11.5 C 364.497,30.9929 364.83,50.6596 364.5,70.5C 354.167,70.5 343.833,70.5 333.5,70.5C 333.5,70.1667 333.5,69.8333 333.5,69.5C 343.5,69.5 353.5,69.5 363.5,69.5C 363.5,50.1667 363.5,30.8333 363.5,11.5 Z"/></g>
<g><path style="opacity:0.133" fill="#6c518a" d="M 194.5,42.5 C 192.287,44.8603 189.621,46.6937 186.5,48C 191.528,53.2436 196.195,58.7436 200.5,64.5C 199.833,64.5 199.167,64.5 198.5,64.5C 193.131,59.4595 188.465,53.7929 184.5,47.5C 187.303,44.7652 190.636,43.0985 194.5,42.5 Z"/></g>
<g><path style="opacity:1" fill="#9063d6" d="M 115.5,23.5 C 121.956,32.2133 122.123,41.2133 116,50.5C 113.666,54 110.832,57 107.5,59.5C 107.185,57.7741 107.019,56.1075 107,54.5C 108.333,55.8333 109.667,55.8333 111,54.5C 111.766,51.4198 112.766,48.4198 114,45.5C 114.333,45.8333 114.667,46.1667 115,46.5C 118.173,41.9611 119.173,36.9611 118,31.5C 116.731,29.0066 115.898,26.3399 115.5,23.5 Z"/></g>
<g><path style="opacity:0.255" fill="#85719e" d="M 365.5,-0.5 C 375.167,-0.5 384.833,-0.5 394.5,-0.5C 394.789,3.10636 394.456,6.60636 393.5,10C 394.094,10.4643 394.761,10.631 395.5,10.5C 395.5,30.5 395.5,50.5 395.5,70.5C 394.833,54.8333 394.167,39.1667 393.5,23.5C 393.5,19.5 393.5,15.5 393.5,11.5C 384.833,11.5 376.167,11.5 367.5,11.5C 367.5,31.1667 367.5,50.8333 367.5,70.5C 366.5,70.5 365.5,70.5 364.5,70.5C 364.83,50.6596 364.497,30.9929 363.5,11.5C 363.5,11.1667 363.5,10.8333 363.5,10.5C 365.414,7.31569 366.08,3.64903 365.5,-0.5 Z"/></g>
<g><path style="opacity:0.383" fill="#4c1492" d="M 367.5,0.5 C 375.833,0.5 384.167,0.5 392.5,0.5C 392.5,3.83333 392.5,7.16667 392.5,10.5C 384.167,10.5 375.833,10.5 367.5,10.5C 367.5,7.16667 367.5,3.83333 367.5,0.5 Z"/></g>
<g><path style="opacity:1" fill="#5a01d5" d="M 368.5,1.5 C 376.167,1.5 383.833,1.5 391.5,1.5C 391.5,4.16667 391.5,6.83333 391.5,9.5C 383.833,9.5 376.167,9.5 368.5,9.5C 368.5,6.83333 368.5,4.16667 368.5,1.5 Z"/></g>
<g><path style="opacity:0.863" fill="#47296d" d="M 128.5,10.5 C 128.5,30.1667 128.5,49.8333 128.5,69.5C 136.833,69.5 145.167,69.5 153.5,69.5C 153.5,62.5 153.5,55.5 153.5,48.5C 154.833,48.5 156.167,48.5 157.5,48.5C 161.06,55.0596 165.393,61.0596 170.5,66.5C 170.5,67.8333 170.5,69.1667 170.5,70.5C 165.594,65.0174 160.928,59.3508 156.5,53.5C 155.484,57.7614 155.151,63.428 155.5,70.5C 145.833,70.5 136.167,70.5 126.5,70.5C 125.845,50.1387 126.512,30.1387 128.5,10.5 Z"/></g>
<g><path style="opacity:0.004" fill="#d0bed8" d="M 234.5,48.5 C 236.179,51.0121 235.845,53.0121 233.5,54.5C 233.205,52.2646 233.539,50.2646 234.5,48.5 Z"/></g>
<g><path style="opacity:0.487" fill="#58367c" d="M 429.5,64.5 C 425.853,59.9025 422.186,55.2359 418.5,50.5C 418.656,56.3293 418.322,61.9959 417.5,67.5C 417.737,68.791 417.404,69.791 416.5,70.5C 416.5,70.1667 416.5,69.8333 416.5,69.5C 416.334,61.16 416.5,52.8267 417,44.5C 420.805,50.6306 424.971,56.4639 429.5,62C 430.335,63.1309 430.335,63.9642 429.5,64.5 Z"/></g>
<g><path style="opacity:0.837" fill="#54219e" d="M 393.5,23.5 C 393.83,39.3422 393.496,55.0089 392.5,70.5C 392.5,51.1667 392.5,31.8333 392.5,12.5C 384.5,12.5 376.5,12.5 368.5,12.5C 368.5,31.8333 368.5,51.1667 368.5,70.5C 368.167,70.5 367.833,70.5 367.5,70.5C 367.5,50.8333 367.5,31.1667 367.5,11.5C 376.167,11.5 384.833,11.5 393.5,11.5C 393.5,15.5 393.5,19.5 393.5,23.5 Z"/></g>
<g><path style="opacity:0.999" fill="#5b00d7" d="M 392.5,70.5 C 384.5,70.5 376.5,70.5 368.5,70.5C 368.5,51.1667 368.5,31.8333 368.5,12.5C 376.5,12.5 384.5,12.5 392.5,12.5C 392.5,31.8333 392.5,51.1667 392.5,70.5 Z"/></g>
<g><path style="opacity:0.279" fill="#8e7ba3" d="M 296.5,10.5 C 289.352,11.4916 282.019,11.825 274.5,11.5C 274.5,31.1667 274.5,50.8333 274.5,70.5C 282.167,70.5 289.833,70.5 297.5,70.5C 294.062,71.8232 290.229,72.4898 286,72.5C 281.918,72.4841 277.918,72.1508 274,71.5C 273.5,51.1694 273.333,30.8361 273.5,10.5C 281.167,10.5 288.833,10.5 296.5,10.5 Z"/></g>
<g><path style="opacity:1" fill="#7942cd" d="M 72.5,52.5 C 72.3893,53.1174 72.056,53.6174 71.5,54C 67.68,54.2348 64.0133,55.0682 60.5,56.5C 60.2907,57.086 59.9574,57.586 59.5,58C 61.0629,58.7589 62.0629,59.9256 62.5,61.5C 60.6336,60.9862 58.8003,60.3195 57,59.5C 53.8695,60.9837 50.7029,62.3171 47.5,63.5C 47.9709,62.0992 48.6376,60.7658 49.5,59.5C 51.6198,60.8715 52.6198,60.2048 52.5,57.5C 53.552,57.6495 54.552,57.4828 55.5,57C 50.8729,56.95 46.5396,56.1167 42.5,54.5C 52.5889,54.8771 62.5889,54.2104 72.5,52.5 Z"/></g>
<g><path style="opacity:0.702" fill="#54347b" d="M 333.5,69.5 C 333.5,69.8333 333.5,70.1667 333.5,70.5C 333.167,70.5 332.833,70.5 332.5,70.5C 332.666,64.1579 332.5,57.8246 332,51.5C 328.768,58.2681 324.601,64.2681 319.5,69.5C 322.3,61.2295 326.633,53.8962 332.5,47.5C 333.497,54.8032 333.831,62.1365 333.5,69.5 Z"/></g>
<g><path style="opacity:0.518" fill="#56367b" d="M 300.5,54.5 C 304.183,58.0251 307.35,62.0251 310,66.5C 311.5,68.4687 313.333,69.802 315.5,70.5C 313.833,70.5 312.167,70.5 310.5,70.5C 306.829,65.4704 303.495,60.1371 300.5,54.5 Z"/></g>
<g><path style="opacity:1" fill="#7a46ca" d="M 11.5,56.5 C 12.8734,56.3433 14.2068,56.51 15.5,57C 17.2338,60.52 19.9005,61.3534 23.5,59.5C 23.9106,60.2624 24.0773,61.2624 24,62.5C 24.7504,63.1258 25.5838,63.6258 26.5,64C 33.5226,64.6234 40.5226,64.4568 47.5,63.5C 34.0438,69.1361 22.0438,66.8027 11.5,56.5 Z"/></g>
<g><path style="opacity:0.965" fill="#885ccf" d="M 105.5,60.5 C 101.675,63.5822 97.3421,65.9155 92.5,67.5C 91.7016,71.7094 91.7016,75.7094 92.5,79.5C 91.8333,79.5 91.1667,79.5 90.5,79.5C 87.5,78.1667 84.5,76.8333 81.5,75.5C 84.4824,75.9629 87.4824,76.2962 90.5,76.5C 89.8857,72.8648 89.5524,69.1981 89.5,65.5C 91.1667,65.5 92.8333,65.5 94.5,65.5C 94.5,64.5 94.5,63.5 94.5,62.5C 96.8333,62.5 99.1667,62.5 101.5,62.5C 101.5,61.5 101.5,60.5 101.5,59.5C 102.959,59.4326 104.292,59.7659 105.5,60.5 Z"/></g>
<g><path style="opacity:0.169" fill="#5c3d7f" d="M 457.5,11.5 C 457.5,11.1667 457.5,10.8333 457.5,10.5C 473.837,10.3334 490.17,10.5001 506.5,11C 512.236,11.5365 517.236,13.7032 521.5,17.5C 523.405,19.8452 524.571,22.5119 525,25.5C 525.766,36.5203 525.599,47.5203 524.5,58.5C 523.456,62.3787 521.123,65.212 517.5,67C 515.221,67.4728 513.221,68.4728 511.5,70C 509.19,70.4966 506.857,70.6633 504.5,70.5C 504.167,70.5 503.833,70.5 503.5,70.5C 508.182,68.7111 512.849,66.7111 517.5,64.5C 519.403,63.0527 521.07,61.386 522.5,59.5C 523.499,46.8508 523.832,34.1842 523.5,21.5C 522.5,21.5 521.5,21.5 520.5,21.5C 520.67,20.1779 520.337,19.0113 519.5,18C 515.941,16.0378 512.274,14.5378 508.5,13.5C 507.737,12.7321 506.737,12.2321 505.5,12C 489.503,11.5001 473.503,11.3334 457.5,11.5 Z"/></g>
<g><path style="opacity:0.205" fill="#ccbed8" d="M 156.5,53.5 C 156.829,59.5368 156.496,65.5368 155.5,71.5C 146.215,72.6396 136.881,72.8063 127.5,72C 126.944,71.6174 126.611,71.1174 126.5,70.5C 136.167,70.5 145.833,70.5 155.5,70.5C 155.151,63.428 155.484,57.7614 156.5,53.5 Z"/></g>
<g><path style="opacity:0.225" fill="#b5a9c0" d="M 233.5,56.5 C 233.5,56.1667 233.5,55.8333 233.5,55.5C 246.5,55.5 259.5,55.5 272.5,55.5C 272.807,61.0934 272.473,66.5934 271.5,72C 238.167,72.6667 204.833,72.6667 171.5,72C 170.944,71.6174 170.611,71.1174 170.5,70.5C 204.167,70.5 237.833,70.5 271.5,70.5C 271.5,65.8333 271.5,61.1667 271.5,56.5C 258.833,56.5 246.167,56.5 233.5,56.5 Z"/></g>
<g><path style="opacity:0.2" fill="#c4b2d1" d="M 310.5,70.5 C 312.167,70.5 313.833,70.5 315.5,70.5C 316.833,70.5 318.167,70.5 319.5,70.5C 318.508,72.0265 317.008,72.6932 315,72.5C 312.992,72.6932 311.492,72.0265 310.5,70.5 Z"/></g>
<g><path style="opacity:0.209" fill="#c0b3cf" d="M 393.5,23.5 C 394.167,39.1667 394.833,54.8333 395.5,70.5C 402.5,70.5 409.5,70.5 416.5,70.5C 417.404,69.791 417.737,68.791 417.5,67.5C 418.801,68.8845 418.801,70.3845 417.5,72C 413.833,72.1667 410.167,72.3333 406.5,72.5C 387.169,72.3669 367.836,72.3669 348.5,72.5C 342.789,72.4949 337.456,71.8282 332.5,70.5C 332.833,70.5 333.167,70.5 333.5,70.5C 343.833,70.5 354.167,70.5 364.5,70.5C 365.5,70.5 366.5,70.5 367.5,70.5C 367.833,70.5 368.167,70.5 368.5,70.5C 376.5,70.5 384.5,70.5 392.5,70.5C 393.496,55.0089 393.83,39.3422 393.5,23.5 Z"/></g>
</svg>
